<?xml version="1.0" encoding="utf-8"?>
<!-- Generator: Adobe Illustrator 24.0.1, SVG Export Plug-In . SVG Version: 6.00 Build 0)  -->
<svg version="1.1" id="Layer_2" xmlns="http://www.w3.org/2000/svg" xmlns:xlink="http://www.w3.org/1999/xlink" x="0px" y="0px"
	 viewBox="0 0 85.1 85" style="enable-background:new 0 0 85.1 85;" xml:space="preserve">
<style type="text/css">
	.st0{fill:#009B87;}
</style>
<path class="st0" d="M56.8,22.3h-1.1V20c0-0.6-0.5-1.1-1.1-1.1s-1.1,0.5-1.1,1.1v2.3h-9.1V20c0-0.6-0.5-1.1-1.1-1.1
	c-0.6,0-1.1,0.5-1.1,1.1v2.3H33V20c0-0.6-0.5-1.1-1.1-1.1s-1.1,0.5-1.1,1.1v2.3h-1.1c-4.4,0-7.9,3.6-7.9,7.9v24.4
	c0,4.7,3.8,8.5,8.5,8.5h26.1c4.7,0,8.5-3.8,8.5-8.5V35.9v-5.7C64.8,25.9,61.2,22.3,56.8,22.3z M29.8,56.9c-0.6,0-1.1-0.5-1.1-1.1
	c0-0.6,0.5-1.1,1.1-1.1c0.6,0,1.1,0.5,1.1,1.1C31,56.4,30.5,56.9,29.8,56.9z M29.8,49c-0.6,0-1.1-0.5-1.1-1.1c0-0.6,0.5-1.1,1.1-1.1
	c0.6,0,1.1,0.5,1.1,1.1C31,48.5,30.5,49,29.8,49z M29.8,41.1c-0.6,0-1.1-0.5-1.1-1.1s0.5-1.1,1.1-1.1c0.6,0,1.1,0.5,1.1,1.1
	S30.5,41.1,29.8,41.1z M36.6,56.9c-0.6,0-1.1-0.5-1.1-1.1c0-0.6,0.5-1.1,1.1-1.1c0.6,0,1.1,0.5,1.1,1.1
	C37.8,56.4,37.3,56.9,36.6,56.9z M36.6,49c-0.6,0-1.1-0.5-1.1-1.1c0-0.6,0.5-1.1,1.1-1.1c0.6,0,1.1,0.5,1.1,1.1
	C37.8,48.5,37.3,49,36.6,49z M36.6,41.1c-0.6,0-1.1-0.5-1.1-1.1s0.5-1.1,1.1-1.1c0.6,0,1.1,0.5,1.1,1.1S37.3,41.1,36.6,41.1z
	 M43.4,56.9c-0.6,0-1.1-0.5-1.1-1.1c0-0.6,0.5-1.1,1.1-1.1c0.6,0,1.1,0.5,1.1,1.1C44.6,56.4,44.1,56.9,43.4,56.9z M43.4,49
	c-0.6,0-1.1-0.5-1.1-1.1c0-0.6,0.5-1.1,1.1-1.1c0.6,0,1.1,0.5,1.1,1.1C44.6,48.5,44.1,49,43.4,49z M43.4,41.1
	c-0.6,0-1.1-0.5-1.1-1.1s0.5-1.1,1.1-1.1c0.6,0,1.1,0.5,1.1,1.1S44.1,41.1,43.4,41.1z M50.2,56.9c-0.6,0-1.1-0.5-1.1-1.1
	c0-0.6,0.5-1.1,1.1-1.1c0.6,0,1.1,0.5,1.1,1.1C51.4,56.4,50.9,56.9,50.2,56.9z M50.2,49c-0.6,0-1.1-0.5-1.1-1.1
	c0-0.6,0.5-1.1,1.1-1.1c0.6,0,1.1,0.5,1.1,1.1C51.4,48.5,50.9,49,50.2,49z M50.2,41.1c-0.6,0-1.1-0.5-1.1-1.1s0.5-1.1,1.1-1.1
	c0.6,0,1.1,0.5,1.1,1.1S50.9,41.1,50.2,41.1z M57,56.9c-0.6,0-1.1-0.5-1.1-1.1c0-0.6,0.5-1.1,1.1-1.1c0.6,0,1.1,0.5,1.1,1.1
	C58.2,56.4,57.7,56.9,57,56.9z M57,49c-0.6,0-1.1-0.5-1.1-1.1c0-0.6,0.5-1.1,1.1-1.1c0.6,0,1.1,0.5,1.1,1.1C58.2,48.5,57.7,49,57,49
	z M57,41.1c-0.6,0-1.1-0.5-1.1-1.1s0.5-1.1,1.1-1.1c0.6,0,1.1,0.5,1.1,1.1S57.7,41.1,57,41.1z M62.6,30.6H24v-1.1
	c0-3.1,2.5-5.7,5.7-5.7h1.1v2.3c-0.6,0-1.1,0.5-1.1,1.1c0,0.6,0.5,1.1,1.1,1.1h2.3c0.6,0,1.1-0.5,1.1-1.1c0-0.6-0.5-1.1-1.1-1.1
	v-2.3h9.1v2.3c-0.6,0-1.1,0.5-1.1,1.1c0,0.6,0.5,1.1,1.1,1.1h2.3c0.6,0,1.1-0.5,1.1-1.1c0-0.6-0.5-1.1-1.1-1.1v-2.3h9.1v2.3
	c-0.6,0-1.1,0.5-1.1,1.1c0,0.6,0.5,1.1,1.1,1.1h2.3c0.6,0,1.1-0.5,1.1-1.1c0-0.6-0.5-1.1-1.1-1.1v-2.3h1.1c3.1,0,5.7,2.5,5.7,5.7
	V30.6z"/>
</svg>
