<?xml version="1.0" encoding="utf-8"?>
<!-- Generator: Adobe Illustrator 24.0.1, SVG Export Plug-In . SVG Version: 6.00 Build 0)  -->
<svg version="1.1" xmlns="http://www.w3.org/2000/svg" xmlns:xlink="http://www.w3.org/1999/xlink" x="0px" y="0px"
	 viewBox="0 0 85.1 85" style="enable-background:new 0 0 85.1 85;" xml:space="preserve">
<style type="text/css">
	.st0{fill:#009B87;}
	.st1{fill:#FFFFFF;}
</style>
<g id="Layer_2">
</g>
<g id="Layer_1">
	<circle class="st0" cx="42.6" cy="42.9" r="31.2"/>
</g>
<g id="Layer_3">
	<g>
		<path class="st1" d="M45.6,37.5c-1.2,0-2.2,1-2.2,2.2v10c0,1.2,1,2.2,2.2,2.2c1.2,0,2.2-1,2.2-2.2v-10
			C47.9,38.5,46.9,37.5,45.6,37.5z M46.4,49.8c0,0.4-0.3,0.7-0.7,0.7c-0.4,0-0.7-0.3-0.7-0.7v-10c0-0.4,0.3-0.7,0.7-0.7
			c0.4,0,0.7,0.3,0.7,0.7V49.8z"/>
		<path class="st1" d="M39.4,37.5c-1.2,0-2.2,1-2.2,2.2v10c0,1.2,1,2.2,2.2,2.2c1.2,0,2.2-1,2.2-2.2v-10
			C41.6,38.5,40.6,37.5,39.4,37.5z M40.1,49.8c0,0.4-0.3,0.7-0.7,0.7c-0.4,0-0.7-0.3-0.7-0.7v-10c0-0.4,0.3-0.7,0.7-0.7
			c0.4,0,0.7,0.3,0.7,0.7V49.8z"/>
		<path class="st1" d="M53.6,57l-1.3-3.5c-0.1-0.3-0.4-0.5-0.7-0.5h-0.1V39.2c0.1,0,0.3,0,0.4,0c2.6-0.2,3.7-2.3,3.6-4.1
			c-0.1-1.9-1.5-3.8-3.9-4.2v-2.5h1.9c1.3,0,2.3-1,2.3-2.3s-1-2.3-2.3-2.3h-22c-1.3,0-2.3,1-2.3,2.3s1,2.3,2.3,2.3h1.9v2.5
			c-2.5,0.3-3.9,2.3-3.9,4.2c-0.1,1.8,1,3.8,3.6,4.1c0.1,0,0.3,0,0.4,0V53h-0.1c-0.3,0-0.6,0.2-0.7,0.5L31.4,57
			c-1.2,0.1-2.2,1.1-2.2,2.4c0,1.3,1.1,2.4,2.4,2.4h22c1.3,0,2.4-1.1,2.4-2.4C55.9,58.1,54.9,57,53.6,57z M30.7,26
			c0-0.5,0.4-0.8,0.8-0.8h22c0.5,0,0.8,0.4,0.8,0.8s-0.4,0.8-0.8,0.8h-22C31.1,26.8,30.7,26.5,30.7,26z M31,35.1
			c0.1-1.3,1.1-2.8,3.2-2.8h5c0.4,0,0.7-0.3,0.7-0.7s-0.3-0.7-0.7-0.7h-4.2v-2.5h15.2v2.5h-4.2c-0.4,0-0.7,0.3-0.7,0.7
			s0.3,0.7,0.7,0.7h5c2.1,0,3.1,1.4,3.2,2.8c0,1.1-0.5,2.4-2.3,2.5c-0.7,0.1-1.4-0.1-1.7-0.5c-0.3-0.3-0.5-0.9-0.4-1.5
			c0,0,0-0.1,0-0.1c0-0.2,0.1-0.3,0.3-0.5c0.3-0.2,0.6-0.2,0.9,0c0.1,0,0.2,0.1,0.2,0.5c0,0.4,0.3,0.8,0.7,0.8c0,0,0,0,0,0
			c0.4,0,0.7-0.3,0.7-0.7c0-0.8-0.3-1.5-0.9-1.9c-0.7-0.4-1.6-0.4-2.4,0c-0.4,0.2-0.8,0.6-0.9,1H36.6c-0.4-0.9-1.4-1.3-2.3-1.3
			c-1.1,0.1-1.8,0.9-1.8,2c0,0.4,0.3,0.7,0.7,0.7s0.7-0.3,0.7-0.7c0-0.1,0-0.4,0.5-0.5c0.3,0,0.8,0.1,0.9,0.7c0,0,0,0,0,0
			c0.1,0.6-0.1,1.1-0.4,1.5c-0.4,0.4-1,0.6-1.7,0.5C31.5,37.5,30.9,36.2,31,35.1z M35,38.9c0.4-0.2,0.8-0.4,1.1-0.7
			c0.4-0.4,0.7-1,0.8-1.9h11.3c0.1,0.9,0.5,1.5,0.8,1.9c0.3,0.3,0.7,0.5,1.1,0.7V53H35V38.9z M33.9,54.5h17.2l1,2.5H33L33.9,54.5z
			 M53.5,60.2h-22c-0.5,0-0.9-0.4-0.9-0.9c0-0.5,0.4-0.9,0.9-0.9h22c0.5,0,0.9,0.4,0.9,0.9C54.4,59.8,54,60.2,53.5,60.2z"/>
		<path class="st1" d="M42.5,32.3L42.5,32.3c0.4,0,0.8-0.3,0.8-0.7c0,0,0,0,0,0c0,0,0,0,0,0c0-0.4-0.3-0.7-0.7-0.7h0
			c-0.4,0-0.7,0.3-0.7,0.7c0,0,0,0,0,0c0,0,0,0,0,0C41.7,32,42.1,32.3,42.5,32.3z"/>
	</g>
</g>
</svg>
