<?xml version="1.0" encoding="utf-8"?>
<!-- Generator: Adobe Illustrator 24.0.1, SVG Export Plug-In . SVG Version: 6.00 Build 0)  -->
<svg version="1.1" id="Layer_2" xmlns="http://www.w3.org/2000/svg" xmlns:xlink="http://www.w3.org/1999/xlink" x="0px" y="0px"
	 viewBox="0 0 85.1 85" style="enable-background:new 0 0 85.1 85;" xml:space="preserve">
<style type="text/css">
	.st0{fill:#009B87;}
	.st1{fill:#FFFFFF;}
</style>
<g>
	<g id="XMLID_6_">
		<g>
			<path class="st0" d="M43.2,19.5c13.4,0,24.3,10.9,24.3,24.3S56.6,68.2,43.2,68.2S18.9,57.3,18.9,43.9S29.8,19.5,43.2,19.5z
				 M52.6,52.8c0.5-0.5,0.5-1.3,0-1.7l-7.4-7.4c-0.2-0.2-0.4-0.5-0.4-0.9V29.9c0-0.7-0.6-1.2-1.2-1.2H43c-0.7,0-1.2,0.6-1.2,1.2V44
				c0,0.3,0.1,0.6,0.4,0.9l8.3,8.3c0.5,0.5,1.3,0.5,1.7,0L52.6,52.8z"/>
			<path class="st1" d="M52.6,51c0.5,0.5,0.5,1.3,0,1.7l-0.4,0.4c-0.5,0.5-1.3,0.5-1.7,0l-8.3-8.3c-0.2-0.2-0.4-0.5-0.4-0.9V29.9
				c0-0.7,0.6-1.2,1.2-1.2h0.6c0.7,0,1.2,0.6,1.2,1.2v12.8c0,0.3,0.1,0.6,0.4,0.9L52.6,51z"/>
		</g>
		<g>
		</g>
	</g>
</g>
<g>
</g>
<g>
</g>
<g>
</g>
<g>
</g>
<g>
</g>
</svg>
