<?xml version="1.0" encoding="utf-8"?>
<!-- Generator: Adobe Illustrator 24.0.1, SVG Export Plug-In . SVG Version: 6.00 Build 0)  -->
<svg version="1.1" id="Layer_2" xmlns="http://www.w3.org/2000/svg" xmlns:xlink="http://www.w3.org/1999/xlink" x="0px" y="0px"
	 viewBox="0 0 85.1 85" style="enable-background:new 0 0 85.1 85;" xml:space="preserve">
<style type="text/css">
	.st0{fill:#009B87;}
</style>
<g>
	<g id="XMLID_1_">
		<g>
			<path class="st0" d="M71.3,24.2c1.3,2.8-0.6,6.3-4.4,8l-12.7,5.9l-6.4,19c-0.7,2-1.7,3.2-3,3.5c-0.2,0.1-0.5,0.1-0.8,0.1
				c-0.9,0-1.8-0.4-2.5-1c-0.2-0.2-0.3-0.5-0.3-0.8l1.5-15.5l-16.3,7.6c-0.1,0.1-0.3,0.1-0.4,0.1c-0.1,0-0.2,0-0.3-0.1
				c-0.2-0.1-0.4-0.3-0.5-0.5l-2.2-4.6c-0.2-0.5,0-1,0.5-1.3l1.6-0.8L17.4,41c-0.3-0.1-0.5-0.3-0.6-0.6c-0.1-0.3-0.1-0.5,0.1-0.8
				l2.5-4.6c0.2-0.4,0.6-0.6,1.1-0.5l10.2,2.6l6.1-2.9L26.1,27c-0.2-0.2-0.4-0.5-0.4-0.8c0-1.2,0.5-2.3,1.4-3.1
				c1.1-0.8,2.7-0.8,4.7-0.1l15.8,6.2l14.7-6.9c1.6-0.8,3.5-1.1,5.2-0.8C69.1,21.7,70.6,22.7,71.3,24.2z"/>
		</g>
		<g>
		</g>
	</g>
	<g>
		<polyline class="st0" points="21.3,65.9 67.1,65.9 67.1,63.9 21.3,63.9 		"/>
	</g>
</g>
<g>
</g>
<g>
</g>
<g>
</g>
<g>
</g>
<g>
</g>
</svg>
