<?xml version="1.0" encoding="utf-8"?>
<!-- Generator: Adobe Illustrator 24.0.1, SVG Export Plug-In . SVG Version: 6.00 Build 0)  -->
<svg version="1.1" xmlns="http://www.w3.org/2000/svg" xmlns:xlink="http://www.w3.org/1999/xlink" x="0px" y="0px"
	 viewBox="0 0 85.1 85" style="enable-background:new 0 0 85.1 85;" xml:space="preserve">
<style type="text/css">
	.st0{fill:#009B87;}
	.st1{fill:none;stroke:#FFFFFF;stroke-width:0.5;stroke-miterlimit:10;}
	.st2{fill:#FFFFFF;}
</style>
<g id="Layer_2">
</g>
<g id="Layer_1">
	<circle class="st0" cx="42.6" cy="42.9" r="31.2"/>
</g>
<g id="Layer_3">
	<g>
		<path class="st2" d="M63.6,36.8l-0.6-1.9c0,0,0,0,0,0L61,28c-0.1-0.2-0.2-0.3-0.4-0.3H49.5c-0.2,0-0.4,0.1-0.4,0.3l-2.6,8.7
			c-0.7,2.3,0,4.8,1.8,6.1c1.9,1.4,4.1,2.3,6.4,2.7v8.9l-3.4,2.1C51,56.8,50.9,57,51,57.3c0.1,0.1,0.2,0.2,0.4,0.2h7.2
			c0.3,0,0.5-0.2,0.5-0.5c0-0.2-0.1-0.3-0.2-0.4l-3.4-2.1v-8.9c2.3-0.4,4.5-1.3,6.4-2.7C63.6,41.6,64.3,39,63.6,36.8z M49.8,28.6
			h10.4l1.7,5.8c-2.2-0.3-4.3-0.1-6.4,0.6c-3.1,1-5.6-0.1-7.2-1.3L49.8,28.6z M53,56.6l2-1.2l2,1.2L53,56.6z M61.3,42.1
			c-1.8,1.4-4,2.3-6.3,2.6c-2.3-0.4-4.4-1.3-6.3-2.6c-1.4-1.1-2-3.2-1.4-5.1l0.7-2.4c1.5,1.1,3.3,1.7,5.1,1.7c0.9,0,1.8-0.1,2.7-0.4
			c2.1-0.7,4.3-0.8,6.4-0.5l0.5,1.6C63.3,38.9,62.7,41.1,61.3,42.1L61.3,42.1z"/>
		<g>
			<g>
				<g>
					<path class="st2" d="M35.2,41.7c-7.3,0-13.2,5.9-13.2,13.2c0,0.2,0.2,0.4,0.4,0.4H48c0.2,0,0.4-0.2,0.4-0.4
						C48.4,47.6,42.5,41.7,35.2,41.7z M23,54.4c0.2-6.6,5.6-11.8,12.3-11.8s12,5.3,12.3,11.8H23z"/>
				</g>
			</g>
			<g>
				<g>
					<path class="st2" d="M47.7,54.4h-25c-0.8,0-1.5,0.7-1.5,1.5s0.7,1.5,1.5,1.5h25c0.8,0,1.5-0.7,1.5-1.5S48.6,54.4,47.7,54.4z
						 M47.7,56.6h-25c-0.4,0-0.7-0.3-0.7-0.7s0.3-0.7,0.7-0.7h25c0.4,0,0.7,0.3,0.7,0.7S48.1,56.6,47.7,56.6z"/>
				</g>
			</g>
			<g>
				<g>
					<path class="st2" d="M33.9,44.4c0-0.2-0.3-0.4-0.5-0.4c-3.2,0.5-6,2.4-7.6,5.2c-0.1,0.2-0.1,0.5,0.2,0.6c0.1,0,0.1,0.1,0.2,0.1
						c0.1,0,0.3-0.1,0.4-0.2c1.5-2.6,4.1-4.3,7-4.8C33.8,44.9,34,44.6,33.9,44.4z"/>
				</g>
			</g>
			<g>
				<g>
					<path class="st2" d="M35.2,37.8c-1.5,0-2.6,1.2-2.6,2.6c0,0.8,0.3,1.5,0.9,2c0.2,0.2,0.5,0.1,0.6,0c0.2-0.2,0.1-0.5,0-0.6
						c-0.4-0.3-0.6-0.8-0.6-1.3c0-1,0.8-1.8,1.8-1.8c1,0,1.8,0.8,1.8,1.8c0,0.5-0.2,1-0.6,1.3c-0.2,0.2-0.2,0.4,0,0.6
						c0.1,0.1,0.2,0.2,0.3,0.2c0.1,0,0.2,0,0.3-0.1c0.6-0.5,0.9-1.2,0.9-2C37.9,38.9,36.7,37.8,35.2,37.8z"/>
				</g>
			</g>
		</g>
	</g>
</g>
</svg>
