<?xml version="1.0" encoding="utf-8"?>
<!-- Generator: Adobe Illustrator 24.0.1, SVG Export Plug-In . SVG Version: 6.00 Build 0)  -->
<svg version="1.1" xmlns="http://www.w3.org/2000/svg" xmlns:xlink="http://www.w3.org/1999/xlink" x="0px" y="0px"
	 viewBox="0 0 85.1 85" style="enable-background:new 0 0 85.1 85;" xml:space="preserve">
<style type="text/css">
	.st0{fill:#009B87;}
	.st1{fill:#FFFFFF;}
</style>
<g id="Layer_1">
	<circle class="st0" cx="42.6" cy="42.9" r="31.2"/>
</g>
<g id="Layer_2">
	<g>
		<g id="XMLID_2_">
			<g>
				<path class="st1" d="M43.3,27.6c8.3,0,15.1,6.8,15.1,15.1c0,8.3-6.8,15.1-15.1,15.1h-0.8V27.6H43.3z"/>
			</g>
			<g>
			</g>
		</g>
		<g>
			<g>
				<g>
					<g>
						<g>
							<path class="st1" d="M42.4,21.7c-11.6,0-21,9.4-21,21s9.4,21,21,21s21-9.4,21-21S54,21.7,42.4,21.7z M42.4,62
								c-10.7,0-19.3-8.7-19.3-19.3s8.7-19.3,19.3-19.3S61.7,32,61.7,42.7S53.1,62,42.4,62z"/>
						</g>
					</g>
				</g>
			</g>
		</g>
	</g>
	<g>
	</g>
	<g>
	</g>
	<g>
	</g>
	<g>
	</g>
	<g>
	</g>
</g>
</svg>
