<?xml version="1.0" encoding="utf-8"?>
<!-- Generator: Adobe Illustrator 24.0.1, SVG Export Plug-In . SVG Version: 6.00 Build 0)  -->
<svg version="1.1" id="Layer_2" xmlns="http://www.w3.org/2000/svg" xmlns:xlink="http://www.w3.org/1999/xlink" x="0px" y="0px"
	 viewBox="0 0 85.1 85" style="enable-background:new 0 0 85.1 85;" xml:space="preserve">
<style type="text/css">
	.st0{fill:#009B87;}
</style>
<g>
	<path class="st0" d="M48.1,29.4c2.2,1.4,3.7,3.7,4,6.3c0.9,0.4,1.9,0.6,2.9,0.6c3.8,0,6.9-3.1,6.9-6.9c0-3.8-3.1-6.9-6.9-6.9
		C51.2,22.6,48.1,25.6,48.1,29.4z M43.6,43.4c3.8,0,6.9-3.1,6.9-6.9c0-3.8-3.1-6.9-6.9-6.9c-3.8,0-6.9,3.1-6.9,6.9
		C36.7,40.4,39.8,43.4,43.6,43.4z M46.5,44.7h-5.8c-4.8,0-8.8,3.9-8.8,8.8v7.1l0,0.1l0.5,0.2c4.6,1.4,8.6,1.9,12,1.9
		c6.5,0,10.2-1.8,10.4-2l0.5-0.2h0v-7.1C55.3,48.7,51.3,44.7,46.5,44.7z M57.9,37.6h-5.8C52,40,51,42,49.5,43.5
		c4.3,1.3,7.5,5.3,7.5,10v2.2c5.7-0.2,9-1.8,9.2-1.9l0.5-0.2h0v-7.1C66.7,41.6,62.7,37.6,57.9,37.6z M31.5,36.4
		c1.3,0,2.6-0.4,3.7-1.1c0.3-2.2,1.5-4.1,3.2-5.4c0-0.1,0-0.3,0-0.4c0-3.8-3.1-6.9-6.9-6.9c-3.8,0-6.9,3.1-6.9,6.9
		C24.7,33.3,27.7,36.4,31.5,36.4z M37.7,43.5c-1.6-1.5-2.5-3.6-2.6-5.9c-0.2,0-0.4,0-0.6,0h-5.8c-4.8,0-8.8,3.9-8.8,8.8v7.1l0,0.1
		l0.5,0.2c3.7,1.2,7,1.7,9.9,1.9v-2.2C30.2,48.8,33.4,44.8,37.7,43.5z"/>
</g>
</svg>
