<?xml version="1.0" encoding="utf-8"?>
<!-- Generator: Adobe Illustrator 24.0.1, SVG Export Plug-In . SVG Version: 6.00 Build 0)  -->
<svg version="1.1" id="Layer_2" xmlns="http://www.w3.org/2000/svg" xmlns:xlink="http://www.w3.org/1999/xlink" x="0px" y="0px"
	 viewBox="0 0 85.1 85" style="enable-background:new 0 0 85.1 85;" xml:space="preserve">
<style type="text/css">
	.st0{fill:#009B87;}
</style>
<g>
	<path class="st0" d="M42.1,40.1c3.9,0,7.1-3.2,7.1-7.1c0-3.9-3.2-7.1-7.1-7.1S35,29.1,35,33C35,36.9,38.2,40.1,42.1,40.1z"/>
	<path class="st0" d="M45.1,41.4h-6c-5,0-9.1,4.1-9.1,9.1v7.4l0,0.1l0.5,0.2c4.8,1.5,9,2,12.4,2c6.7,0,10.6-1.9,10.8-2l0.5-0.2h0.1
		v-7.4C54.2,45.5,50.2,41.4,45.1,41.4z"/>
</g>
</svg>
