<?xml version="1.0" encoding="utf-8"?>
<!-- Generator: Adobe Illustrator 24.0.1, SVG Export Plug-In . SVG Version: 6.00 Build 0)  -->
<svg version="1.1" xmlns="http://www.w3.org/2000/svg" xmlns:xlink="http://www.w3.org/1999/xlink" x="0px" y="0px"
	 viewBox="0 0 85.1 85" style="enable-background:new 0 0 85.1 85;" xml:space="preserve">
<style type="text/css">
	.st0{fill:#009B87;}
	.st1{fill:#FFFFFF;}
</style>
<g id="Layer_2">
</g>
<g id="Layer_1">
	<circle class="st0" cx="42.6" cy="42.9" r="31.2"/>
</g>
<g id="Layer_3">
	<g>
		<g>
			<g>
				<path class="st1" d="M37.8,43.7c0.5,0.3,0.9,0.6,1.1,1.1c0.3,0.5,0.4,1,0.4,1.6c0,0.6-0.1,1.1-0.4,1.6c-0.3,0.5-0.7,0.8-1.1,1.1
					c-0.5,0.3-1,0.4-1.6,0.4c-0.6,0-1.2-0.1-1.6-0.4c-0.5-0.3-0.9-0.6-1.1-1.1c-0.3-0.5-0.4-1-0.4-1.6c0-0.6,0.1-1.1,0.4-1.6
					c0.3-0.5,0.7-0.8,1.1-1.1c0.5-0.3,1-0.4,1.6-0.4C36.8,43.3,37.4,43.4,37.8,43.7z M35.5,45c-0.2,0.1-0.4,0.3-0.5,0.6
					c-0.1,0.2-0.2,0.5-0.2,0.8c0,0.3,0.1,0.6,0.2,0.8c0.1,0.2,0.3,0.4,0.5,0.6c0.2,0.1,0.5,0.2,0.7,0.2c0.3,0,0.5-0.1,0.7-0.2
					c0.2-0.1,0.4-0.3,0.5-0.6c0.1-0.2,0.2-0.5,0.2-0.8c0-0.3-0.1-0.6-0.2-0.8c-0.1-0.2-0.3-0.4-0.5-0.6c-0.2-0.1-0.4-0.2-0.7-0.2
					C36,44.7,35.7,44.8,35.5,45z"/>
				<path class="st1" d="M44,43.4h1.6v5.9h-1.5L41.7,46v3.3h-1.6v-5.9h1.5l2.5,3.3V43.4z"/>
				<path class="st1" d="M46.6,43.4h4.8v1.3h-3.1v0.9h2.8V47h-2.8v0.9h3.1v1.3h-4.9V43.4z"/>
				<path class="st1" d="M37.6,51.1c0.5,0.2,0.8,0.6,1.1,1c0.3,0.4,0.4,1,0.4,1.5c0,0.6-0.1,1.1-0.4,1.5c-0.3,0.4-0.6,0.8-1.1,1
					c-0.5,0.2-1,0.4-1.7,0.4h-2.5v-5.9h2.6C36.5,50.8,37.1,50.9,37.6,51.1z M36.9,54.8c0.2-0.3,0.4-0.7,0.4-1.1
					c0-0.5-0.1-0.8-0.4-1.1c-0.3-0.3-0.6-0.4-1-0.4h-0.8v3.1H36C36.4,55.3,36.7,55.1,36.9,54.8z"/>
				<path class="st1" d="M43.8,56.6l-0.3-0.9h-2.4l-0.4,0.9H39l2.5-5.9h1.8l2.4,5.9H43.8z M41.6,54.4H43l-0.7-1.9L41.6,54.4z"/>
				<path class="st1" d="M51.1,50.8l-2.1,4v1.9h-1.7v-1.8l-2.2-4h1.7l1.3,2.4l1.2-2.4H51.1z"/>
			</g>
		</g>
		<g>
			<g>
				<path class="st1" d="M56.4,30.8h-3.7l-8.8-7.5c0-0.1,0.1-0.3,0.1-0.4c0-0.6-0.5-1.1-1.1-1.1s-1.1,0.5-1.1,1.1
					c0,0.1,0,0.3,0.1,0.4l-8.8,7.5h-3.7c-1.6,0-2.9,1.3-2.9,2.9v27c0,1.6,1.3,2.9,2.9,2.9h23.7l6.1-6.1V33.6
					C59.3,32,58,30.8,56.4,30.8z M53.6,34.4c0,0.8-0.7,1.5-1.5,1.5c-0.8,0-1.5-0.7-1.5-1.5s0.7-1.5,1.5-1.5
					C52.9,32.9,53.6,33.6,53.6,34.4z M42.4,23.7c0.2,0.1,0.3,0.2,0.5,0.2s0.4-0.1,0.5-0.2l8.3,7H34.1L42.4,23.7z M49,34.4
					c0,0.8-0.7,1.5-1.5,1.5c-0.8,0-1.5-0.7-1.5-1.5s0.7-1.5,1.5-1.5C48.4,32.9,49,33.6,49,34.4z M44.5,34.4c0,0.8-0.7,1.5-1.5,1.5
					c-0.8,0-1.5-0.7-1.5-1.5s0.7-1.5,1.5-1.5C43.8,32.9,44.5,33.6,44.5,34.4z M39.9,34.4c0,0.8-0.7,1.5-1.5,1.5
					c-0.9,0-1.5-0.7-1.5-1.5s0.7-1.5,1.5-1.5C39.2,32.9,39.9,33.6,39.9,34.4z M33.8,32.9c0.8,0,1.5,0.7,1.5,1.5
					c0,0.8-0.7,1.5-1.5,1.5s-1.5-0.7-1.5-1.5C32.2,33.6,32.9,32.9,33.8,32.9z M57.7,56.7L57.4,57h-2.4c-1.1,0-2.1,0.9-2.1,2.1v2.4
					l-0.3,0.3H29.4c-0.7,0-1.3-0.6-1.3-1.3V37.8h29.6V56.7z"/>
			</g>
		</g>
	</g>
	<g>
	</g>
	<g>
	</g>
	<g>
	</g>
	<g>
	</g>
	<g>
	</g>
</g>
</svg>
