<?xml version="1.0" encoding="utf-8"?>
<!-- Generator: Adobe Illustrator 24.0.1, SVG Export Plug-In . SVG Version: 6.00 Build 0)  -->
<svg version="1.1" xmlns="http://www.w3.org/2000/svg" xmlns:xlink="http://www.w3.org/1999/xlink" x="0px" y="0px"
	 viewBox="0 0 85.1 85" style="enable-background:new 0 0 85.1 85;" xml:space="preserve">
<style type="text/css">
	.st0{fill:#009B87;}
	.st1{fill:#FFFFFF;}
</style>
<g id="Layer_2">
</g>
<g id="Layer_1">
	<circle class="st0" cx="42.6" cy="42.9" r="31.2"/>
</g>
<g id="Layer_3">
	<g>
		<path class="st1" d="M58.4,57h-0.7v-5c0-1.7-0.9-3.3-2.2-4.2V42c0-2.6-1.9-4.7-4.4-5v-3.9c0-4-3.2-7.2-7.2-7.2h-2.2
			c-4,0-7.2,3.2-7.2,7.2V37c-2.5,0.3-4.4,2.4-4.4,5v5.8c-1.3,0.9-2.2,2.4-2.2,4.2v5h-0.7c-0.1,0-0.3,0.1-0.4,0.2l-1,2
			c-0.3,0.5,0.1,1.1,0.7,1.1H59c0.6,0,1-0.6,0.7-1.1l-1-2C58.7,57.1,58.5,57,58.4,57z M55.5,57v-2.5c0-0.4-0.4-0.8-0.8-0.8H53
			c-0.4,0-0.8,0.4-0.8,0.8V57h-1.1v-2.5c0-0.4-0.4-0.8-0.8-0.8h-1.4V52c0-0.2,0-0.4,0-0.6h7.8c0,0.2,0,0.4,0,0.6v5H55.5z M54.2,57
			h-0.7c-0.1,0-0.2-0.1-0.2-0.2V55c0-0.1,0.1-0.2,0.2-0.2h0.7c0.1,0,0.2,0.1,0.2,0.2v1.8C54.4,56.9,54.3,57,54.2,57z M45.3,57h-0.7
			c-0.1,0-0.2-0.1-0.2-0.2V55c0-0.1,0.1-0.2,0.2-0.2h0.7c0.1,0,0.2,0.1,0.2,0.2v1.8C45.5,56.9,45.4,57,45.3,57z M43.3,54.5V57h-1.1
			v-2.5c0-0.4-0.4-0.8-0.8-0.8h-1.8c-0.4,0-0.8,0.4-0.8,0.8V57h-1.1v-5c0-0.2,0-0.4,0-0.6h9.9c0,0.2,0,0.4,0,0.6v5h-1.1v-2.5
			c0-0.4-0.4-0.8-0.8-0.8h-1.8C43.6,53.7,43.3,54,43.3,54.5z M40.9,57h-0.7C40,57,40,56.9,40,56.8V55c0-0.1,0.1-0.2,0.2-0.2h0.7
			c0.1,0,0.2,0.1,0.2,0.2v1.8C41.1,56.9,41,57,40.9,57z M36.4,57h-0.7c-0.1,0-0.2-0.1-0.2-0.2V55c0-0.1,0.1-0.2,0.2-0.2h0.7
			c0.1,0,0.2,0.1,0.2,0.2v1.8C36.6,56.9,36.5,57,36.4,57z M32.7,48.1h5.8c-0.7,0.6-1.3,1.3-1.6,2.2h-7.7
			C29.8,49,31.2,48.1,32.7,48.1z M34.2,47h-0.7c-0.1,0-0.2-0.1-0.2-0.2V45c0-0.1,0.1-0.2,0.2-0.2h0.7c0.1,0,0.2,0.1,0.2,0.2v1.8
			C34.4,46.9,34.3,47,34.2,47z M38.6,37h-0.7c-0.1,0-0.2-0.1-0.2-0.2V35c0-0.1,0.1-0.2,0.2-0.2h0.7c0.1,0,0.2,0.1,0.2,0.2v1.8
			C38.8,36.9,38.8,37,38.6,37z M40.5,38.1H45c1.3,0,2.5,1,2.7,2.2h-9.9C38,39.1,39.2,38.1,40.5,38.1z M43.1,37h-0.7
			c-0.1,0-0.2-0.1-0.2-0.2V35c0-0.1,0.1-0.2,0.2-0.2h0.7c0.1,0,0.2,0.1,0.2,0.2v1.8C43.3,36.9,43.2,37,43.1,37z M47.5,37h-0.7
			c-0.1,0-0.2-0.1-0.2-0.2V35c0-0.1,0.1-0.2,0.2-0.2h0.7c0.1,0,0.2,0.1,0.2,0.2v1.8C47.7,36.9,47.6,37,47.5,37z M47.7,41.4V47h-1.1
			v-2.5c0-0.4-0.4-0.8-0.8-0.8h-1.8c-0.4,0-0.8,0.4-0.8,0.8V47h-1.1v-2.5c0-0.4-0.4-0.8-0.8-0.8h-1.8c-0.4,0-0.8,0.4-0.8,0.8V47
			h-1.1v-5.6H47.7z M52,47h-0.7c-0.1,0-0.2-0.1-0.2-0.2V45c0-0.1,0.1-0.2,0.2-0.2H52c0.1,0,0.2,0.1,0.2,0.2v1.8
			C52.2,46.9,52.1,47,52,47z M52.7,48.1c1.5,0,2.9,0.9,3.5,2.2h-7.7c-0.3-0.9-0.9-1.6-1.6-2.2H52.7z M45.3,47h-0.7
			c-0.1,0-0.2-0.1-0.2-0.2V45c0-0.1,0.1-0.2,0.2-0.2h0.7c0.1,0,0.2,0.1,0.2,0.2v1.8C45.5,46.9,45.4,47,45.3,47z M40.9,47h-0.7
			C40,47,40,46.9,40,46.8V45c0-0.1,0.1-0.2,0.2-0.2h0.7c0.1,0,0.2,0.1,0.2,0.2v1.8C41.1,46.9,41,47,40.9,47z M41.6,48.1h2.2
			c1.5,0,2.9,0.9,3.5,2.2h-9.2C38.7,49,40.1,48.1,41.6,48.1z M49,54.8h0.7c0.1,0,0.2,0.1,0.2,0.2v1.8c0,0.1-0.1,0.2-0.2,0.2H49
			c-0.1,0-0.2-0.1-0.2-0.2V55C48.8,54.9,48.9,54.8,49,54.8z M53.3,47v-2.6c0-0.4-0.4-0.8-0.8-0.8h-1.8c-0.4,0-0.8,0.4-0.8,0.8V47
			h-1.1v-5.6h5.5c0,0.2,0,0.4,0,0.6v5.3C54,47.2,53.7,47.1,53.3,47z M54,40.3h-5.2c-0.1-0.9-0.5-1.6-1.1-2.2h2.8
			C52.1,38.1,53.4,39,54,40.3z M41.6,27h2.2c2.4,0,4.4,1.4,5.4,3.3H36.2C37.2,28.4,39.3,27,41.6,27z M35.7,31.4h14
			c0.2,0.5,0.2,1.1,0.2,1.7V37h-1.1v-2.5c0-0.4-0.4-0.8-0.8-0.8h-1.8c-0.4,0-0.8,0.4-0.8,0.8V37h-1.1v-2.5c0-0.4-0.4-0.8-0.8-0.8
			h-1.8c-0.4,0-0.8,0.4-0.8,0.8V37H40v-2.5c0-0.4-0.4-0.8-0.8-0.8h-1.8c-0.4,0-0.8,0.4-0.8,0.8V37h-1.1v-3.9
			C35.5,32.5,35.6,32,35.7,31.4z M35,38.1h2.8c-0.6,0.6-1,1.4-1.1,2.2h-5.2C32.1,39,33.4,38.1,35,38.1z M31.1,42c0-0.2,0-0.4,0-0.6
			h5.5V47h-1.1v-2.5c0-0.4-0.4-0.8-0.8-0.8H33c-0.4,0-0.8,0.4-0.8,0.8V47c-0.4,0-0.8,0.1-1.1,0.3V42z M28.8,52c0-0.2,0-0.4,0-0.6
			h7.8c0,0.2,0,0.4,0,0.6v1.7h-1.4c-0.4,0-0.8,0.4-0.8,0.8V57h-1.1v-2.5c0-0.4-0.4-0.8-0.8-0.8h-1.8c-0.4,0-0.8,0.4-0.8,0.8V57h-1.1
			V52z M32,57h-0.7c-0.1,0-0.2-0.1-0.2-0.2V55c0-0.1,0.1-0.2,0.2-0.2H32c0.1,0,0.2,0.1,0.2,0.2v1.8C32.2,56.9,32.1,57,32,57z
			 M27.2,58.7l0.2-0.3c0.1-0.1,0.2-0.2,0.4-0.2h29.9c0.1,0,0.3,0.1,0.4,0.2l0.2,0.3c0.1,0.3-0.1,0.6-0.4,0.6H27.6
			C27.3,59.2,27.1,58.9,27.2,58.7z"/>
	</g>
</g>
</svg>
