<?xml version="1.0" encoding="utf-8"?>
<!-- Generator: Adobe Illustrator 24.0.1, SVG Export Plug-In . SVG Version: 6.00 Build 0)  -->
<svg version="1.1" xmlns="http://www.w3.org/2000/svg" xmlns:xlink="http://www.w3.org/1999/xlink" x="0px" y="0px"
	 viewBox="0 0 85.1 85" style="enable-background:new 0 0 85.1 85;" xml:space="preserve">
<style type="text/css">
	.st0{fill:#009B87;}
	.st1{fill:#FFFFFF;}
</style>
<g id="Layer_2">
</g>
<g id="Layer_1">
	<circle class="st0" cx="42.6" cy="42.9" r="31.2"/>
</g>
<g id="Layer_3">
	<g>
		<g>
			<g>
				<path class="st1" d="M56.1,30.4h-3.7l-8.8-7.5c0-0.1,0.1-0.3,0.1-0.4c0-0.6-0.5-1.1-1.1-1.1s-1.1,0.5-1.1,1.1
					c0,0.1,0,0.3,0.1,0.4l-8.8,7.5h-3.7c-1.6,0-2.9,1.3-2.9,2.9v27c0,1.6,1.3,2.9,2.9,2.9h23.7L59,57V33.3
					C59,31.7,57.7,30.4,56.1,30.4z M53.4,34.1c0,0.8-0.7,1.5-1.5,1.5c-0.8,0-1.5-0.7-1.5-1.5s0.7-1.5,1.5-1.5
					C52.7,32.6,53.4,33.2,53.4,34.1z M42.1,23.4c0.2,0.1,0.3,0.2,0.5,0.2s0.4-0.1,0.5-0.2l8.3,7H33.9L42.1,23.4z M48.8,34.1
					c0,0.8-0.7,1.5-1.5,1.5c-0.8,0-1.5-0.7-1.5-1.5s0.7-1.5,1.5-1.5C48.1,32.6,48.8,33.2,48.8,34.1z M44.2,34.1
					c0,0.8-0.7,1.5-1.5,1.5c-0.8,0-1.5-0.7-1.5-1.5s0.7-1.5,1.5-1.5C43.5,32.6,44.2,33.2,44.2,34.1z M39.6,34.1
					c0,0.8-0.7,1.5-1.5,1.5c-0.9,0-1.5-0.7-1.5-1.5s0.7-1.5,1.5-1.5C38.9,32.6,39.6,33.2,39.6,34.1z M33.5,32.6
					c0.8,0,1.5,0.7,1.5,1.5c0,0.8-0.7,1.5-1.5,1.5S32,34.9,32,34.1C32,33.2,32.7,32.6,33.5,32.6z M57.4,56.4l-0.3,0.3h-2.4
					c-1.1,0-2.1,0.9-2.1,2.1v2.4l-0.3,0.3H29.2c-0.7,0-1.3-0.6-1.3-1.3V37.4h29.6V56.4z"/>
			</g>
		</g>
		<g>
			<g>
				<path class="st1" d="M36.1,44.5c-0.4-0.1-0.7-0.2-0.9-0.2c-0.2,0-0.3,0-0.4,0.1s-0.1,0.1-0.1,0.3c0,0.2,0.1,0.3,0.3,0.4
					c0.2,0.1,0.4,0.2,0.8,0.3c0.4,0.1,0.8,0.2,1,0.4c0.3,0.1,0.5,0.3,0.7,0.6s0.3,0.6,0.3,1c0,0.4-0.1,0.8-0.3,1s-0.5,0.5-0.9,0.6
					s-0.8,0.2-1.2,0.2c-0.5,0-1-0.1-1.5-0.3c-0.5-0.2-0.9-0.4-1.3-0.7l0.7-1.3c0.3,0.3,0.7,0.5,1.1,0.7s0.8,0.3,1.1,0.3
					c0.2,0,0.3,0,0.4-0.1c0.1-0.1,0.2-0.2,0.2-0.3c0-0.2-0.1-0.3-0.3-0.4c-0.2-0.1-0.4-0.2-0.8-0.3c-0.4-0.1-0.8-0.2-1-0.3
					s-0.5-0.3-0.7-0.5c-0.2-0.2-0.3-0.6-0.3-1c0-0.4,0.1-0.7,0.3-1s0.5-0.5,0.9-0.7c0.4-0.2,0.8-0.2,1.3-0.2c0.4,0,0.9,0.1,1.3,0.2
					c0.4,0.1,0.8,0.3,1.1,0.5L37.1,45C36.8,44.8,36.4,44.6,36.1,44.5z"/>
				<path class="st1" d="M42.7,49L42.3,48H40L39.6,49h-1.8l2.5-5.9h1.8l2.4,5.9H42.7z M40.5,46.7h1.4l-0.7-1.9L40.5,46.7z"/>
				<path class="st1" d="M43.9,43.1h5.2v1.4h-1.7V49h-1.8v-4.5h-1.7V43.1z"/>
				<path class="st1" d="M36.1,51.9c-0.4-0.1-0.7-0.2-0.9-0.2c-0.2,0-0.3,0-0.4,0.1s-0.1,0.1-0.1,0.3c0,0.2,0.1,0.3,0.3,0.4
					c0.2,0.1,0.4,0.2,0.8,0.3c0.4,0.1,0.8,0.2,1,0.4c0.3,0.1,0.5,0.3,0.7,0.6s0.3,0.6,0.3,1c0,0.4-0.1,0.8-0.3,1s-0.5,0.5-0.9,0.6
					s-0.8,0.2-1.2,0.2c-0.5,0-1-0.1-1.5-0.3c-0.5-0.2-0.9-0.4-1.3-0.7l0.7-1.3c0.3,0.3,0.7,0.5,1.1,0.7s0.8,0.3,1.1,0.3
					c0.2,0,0.3,0,0.4-0.1c0.1-0.1,0.2-0.2,0.2-0.3c0-0.2-0.1-0.3-0.3-0.4c-0.2-0.1-0.4-0.2-0.8-0.3c-0.4-0.1-0.8-0.2-1-0.3
					s-0.5-0.3-0.7-0.5c-0.2-0.2-0.3-0.6-0.3-1c0-0.4,0.1-0.7,0.3-1s0.5-0.5,0.9-0.7c0.4-0.2,0.8-0.2,1.3-0.2c0.4,0,0.9,0.1,1.3,0.2
					c0.4,0.1,0.8,0.3,1.1,0.5l-0.6,1.3C36.8,52.2,36.4,52,36.1,51.9z"/>
				<path class="st1" d="M40.3,54.7c0.2,0.2,0.4,0.3,0.7,0.3c0.3,0,0.5-0.1,0.7-0.3s0.3-0.5,0.3-0.8v-3.5h1.8v3.5
					c0,0.5-0.1,1-0.3,1.4s-0.5,0.7-0.9,0.9c-0.4,0.2-0.9,0.3-1.4,0.3c-0.6,0-1-0.1-1.4-0.3c-0.4-0.2-0.7-0.5-1-0.9s-0.3-0.8-0.3-1.4
					v-3.5H40v3.5C40,54.3,40.1,54.5,40.3,54.7z"/>
				<path class="st1" d="M48.7,50.5h1.6v5.9h-1.5l-2.5-3.3v3.3h-1.6v-5.9h1.5l2.5,3.3V50.5z"/>
			</g>
		</g>
	</g>
</g>
</svg>
